<svg xmlns="http://www.w3.org/2000/svg" xmlns:xlink="http://www.w3.org/1999/xlink" width="500" zoomAndPan="magnify" viewBox="0 0 375 374.999991" height="500" preserveAspectRatio="xMidYMid meet" version="1.0"><defs><clipPath id="0ebd3f3718"><path d="M 58 67.03125 L 91 67.03125 L 91 307.78125 L 58 307.78125 Z M 58 67.03125 " clip-rule="nonzero"/></clipPath><clipPath id="c05c14122c"><path d="M 121 67.03125 L 157 67.03125 L 157 307 L 121 307 Z M 121 67.03125 " clip-rule="nonzero"/></clipPath></defs><rect x="-37.5" width="450" fill="#ffffff" y="-37.499999" height="449.999989" fill-opacity="1"/><rect x="-37.5" width="450" fill="#ffffff" y="-37.499999" height="449.999989" fill-opacity="1"/><rect x="-37.5" width="450" fill="#ffd230" y="-37.499999" height="449.999989" fill-opacity="1"/><g clip-path="url(#0ebd3f3718)"><path fill="#000000" d="M 58.769531 81.679688 C 62.242188 151.980469 62.769531 222.410156 60.339844 292.753906 C 60.082031 300.21875 67.089844 307.355469 74.613281 307.019531 C 82.566406 306.664062 88.609375 300.75 88.882812 292.753906 C 91.3125 222.410156 90.789062 151.980469 87.3125 81.679688 C 86.945312 74.238281 81.015625 67.0625 73.042969 67.417969 C 65.625 67.753906 58.375 73.699219 58.769531 81.679688 " fill-opacity="1" fill-rule="nonzero"/></g><g clip-path="url(#c05c14122c)"><path fill="#000000" d="M 126.886719 81.714844 C 128.730469 152.136719 126.859375 222.628906 121.289062 292.855469 C 120.726562 299.910156 127.148438 305.988281 133.664062 306.863281 C 140.957031 307.84375 146.9375 303.429688 149.324219 296.648438 C 150.335938 293.765625 151.351562 290.882812 152.363281 288 C 154.84375 280.957031 149.554688 272.085938 142.398438 270.457031 C 134.414062 268.640625 127.492188 272.875 124.839844 280.417969 C 123.824219 283.300781 122.8125 286.183594 121.796875 289.0625 C 131.140625 290.328125 140.488281 291.589844 149.832031 292.855469 C 155.40625 222.628906 157.273438 152.136719 155.433594 81.714844 C 155.234375 74.261719 149.007812 67.097656 141.160156 67.449219 C 133.59375 67.789062 126.679688 73.722656 126.886719 81.714844 " fill-opacity="1" fill-rule="nonzero"/></g><path fill="#000000" d="M 196.105469 82.472656 C 198.503906 152.515625 203.554688 222.453125 211.257812 292.113281 C 220.601562 290.851562 229.945312 289.585938 239.289062 288.324219 C 238.859375 285.949219 238.429688 283.578125 238 281.207031 C 236.621094 273.625 227.398438 269.335938 220.441406 271.246094 C 212.457031 273.4375 209.085938 281.183594 210.46875 288.789062 C 210.902344 291.164062 211.335938 293.535156 211.765625 295.90625 C 213.03125 302.871094 220.972656 306.988281 227.425781 306.121094 C 233.808594 305.265625 240.582031 299.175781 239.800781 292.113281 C 232.101562 222.453125 227.046875 152.515625 224.652344 82.472656 C 224.398438 75.023438 218.269531 67.859375 210.378906 68.210938 C 202.863281 68.546875 195.832031 74.488281 196.105469 82.472656 " fill-opacity="1" fill-rule="nonzero"/><path fill="#000000" d="M 283.007812 82.835938 C 284.335938 118.277344 278.660156 152.046875 272.710938 186.660156 C 269.632812 204.601562 266.625 222.546875 264.359375 240.613281 C 262.09375 258.691406 259.625 277.484375 263.761719 295.464844 C 265.503906 303.039062 274.109375 307.320312 281.320312 305.429688 C 289.667969 303.234375 295.621094 295.613281 295.355469 286.921875 C 295.128906 279.472656 288.953125 272.304688 281.082031 272.660156 C 273.546875 272.996094 266.566406 278.933594 266.808594 286.921875 C 269.117188 283.921875 271.421875 280.921875 273.734375 277.925781 C 279.585938 281.242188 285.4375 284.566406 291.289062 287.882812 C 289.6875 280.925781 289.96875 272.132812 290.554688 264.011719 C 291.15625 255.589844 292.058594 247.1875 293.132812 238.816406 C 295.179688 222.882812 298.335938 205.371094 301.160156 188.875 C 307.15625 153.863281 312.890625 118.476562 311.554688 82.835938 C 311.273438 75.390625 305.1875 68.21875 297.277344 68.574219 C 289.785156 68.910156 282.710938 74.851562 283.007812 82.835938 " fill-opacity="1" fill-rule="nonzero"/><path fill="#000000" d="M 360.171875 120.308594 C 266.667969 130.160156 174.308594 149.910156 85.257812 180.121094 C 60.660156 188.464844 36.339844 197.605469 12.320312 207.488281 C 5.199219 210.417969 0.132812 216.960938 2.351562 225.03125 C 4.203125 231.765625 12.734375 237.945312 19.90625 234.992188 C 104.875 200.039062 193.703125 174.667969 284.28125 159.257812 C 310.019531 154.878906 334.355469 151.550781 360.171875 148.832031 C 367.574219 148.050781 374.8125 142.832031 374.441406 134.570312 C 374.128906 127.515625 368.125 119.472656 360.171875 120.308594 " fill-opacity="1" fill-rule="nonzero"/></svg>